/* XPM */
static char *_cca117850af4697bfff8828474254dfbCmb3oThCetr8x4w[] = {
/* columns rows colors chars-per-pixel */
"16 16 3 1 ",
"  c #A1AEFF", 
"x c #80D010",
". c gray99",
/* pixels */
"       xx       ",
"       xx       ",
"       xx       ",
"       xx       ",
"       xx       ",
"       xx       ",
"       xx       ",
"       xx       ",
"       xx       ",
"       xx       ",
"       xx       ",
"       xx       ",
"       xx       ",
"       xx       ",
"       xx       ",
"       xx       ",
};
