/* XPM */
static char *f9e3fc5d15f348a2f5bb38403849001f4x1jsaKEVbALs8zn[] = {
/* columns rows colors chars-per-pixel */
"16 16 3 1 ",
"  c #A1AEFF", 
"x c #80D010",
". c gray99",
/* pixels */
"      .xx       ",
"       xx       ",
"       xx       ",
"       xx       ",
"       xx       ",
"       xx       ",
"       xx       ",
"       xx       ",
"       xx       ",
"       xx       ",
"       xx       ",
"       xx       ",
"       xx       ",
"       xx       ",
"       xx       ",
"       xx       "
};
