/* XPM */
static char *_ec6dc51c2ab444ebfcd4ad95ae6f890MUE1iDgvbFGP48zl[] = {
/* columns rows colors chars-per-pixel */
"16 16 3 1 ",
"  c black",
". c #C84C0C",
"X c #FCBCB0",
/* pixels */
".XXXXXXXX .XXXX.",
"X........ X.... ",
"X........ X.... ",
"X........ X.... ",
"X........ X ... ",
"X........ .    .",
"X........ XXXXX ",
"X........ X.... ",
"X........ X.... ",
"X........ X.... ",
"  ...... X..... ",
"XX  .... X..... ",
"X.XX    X...... ",
"X...XXX X...... ",
"X...... X.....  ",
".      .X      ."
};
