/* XPM */
static char *_39430d90be2404af94c5e046f2edfe0CM3r65l8hdjEqKw8[] = {
/* columns rows colors chars-per-pixel */
"16 16 4 1 ",
"  c None",
". c black",
"X c #00A800",
"o c #80D010",
/* pixels */
"................",
"ooooooooooooooo.",
"XXXXXXXXXXXXXXX.",
"XXXXXXXXXoXoXoo.",
"XXXXXXXXXXoXooo.",
"XXXXXXXXXoXoXoo.",
"XXXXXXXXXXoXooo.",
"XXXXXXXXXoXoXoo.",
"XXXXXXXXXXoXooo.",
"XXXXXXXXXoXoXoo.",
"XXXXXXXXXXoXooo.",
"XXXXXXXXXoXoXoo.",
"XXXXXXXXXXoXooo.",
"XXXXXXXXXoXoXoo.",
"................",
"..............  "
};
