/* XPM */
static char *_6573b7c4f29466ae6e5c28b9dc5777fKGNr61MWHVSKUfqz[] = {
/* columns rows colors chars-per-pixel */
"16 16 3 1 ",
"  c black",
". c #00A800",
"X c #80D010",
/* pixels */
"   XXX..XXXXX.XX",
"   XXX..XXXXX.XX",
"   XXX..XXXXX.XX",
"   XXX..XXXXX.XX",
"   XXX..XXXXX.XX",
"   XXX..XXXXX.XX",
"   XXX..XXXXX.XX",
"   XXX..XXXXX.XX",
"   XXX..XXXXX.XX",
"   XXX..XXXXX.XX",
"   XXX..XXXXX.XX",
"   XXX..XXXXX.XX",
"   XXX..XXXXX.XX",
"   XXX..XXXXX.XX",
"   XXX..XXXXX.XX",
"   XXX..XXXXX.XX"
};
