/* XPM */
static char *_d14aecdd490499feca8e17ad823bd4aqQTmdx9fzUxkkkSN[] = {
/* columns rows colors chars-per-pixel */
"16 16 3 1 ",
"  c black",
". c #00A800",
"X c #80D010",
/* pixels */
"........X.XXX   ",
".........X.XX   ",
"........X.XXX   ",
".........X.XX   ",
"........X.XXX   ",
".........X.XX   ",
"........X.XXX   ",
".........X.XX   ",
"........X.XXX   ",
".........X.XX   ",
"........X.XXX   ",
".........X.XX   ",
"........X.XXX   ",
".........X.XX   ",
"........X.XXX   ",
".........X.XX   "
};
